<svg width="24" height="22" viewBox="0 0 24 22" fill="none" xmlns="http://www.w3.org/2000/svg">
<g clip-path="url(#clip0_58_2669)">
<path d="M12 1.33334C8.63333 1.33334 5.9375 2.86668 3.975 4.69168C2.025 6.50001 0.720829 8.66668 0.104163 10.1542C-0.0333374 10.4833 -0.0333374 10.85 0.104163 11.1792C0.720829 12.6667 2.025 14.8333 3.975 16.6417C5.9375 18.4667 8.63333 20 12 20C15.3667 20 18.0625 18.4667 20.025 16.6417C21.975 14.8292 23.2792 12.6667 23.9 11.1792C24.0375 10.85 24.0375 10.4833 23.9 10.1542C23.2792 8.66668 21.975 6.50001 20.025 4.69168C18.0625 2.86668 15.3667 1.33334 12 1.33334ZM6 10.6667C6 9.07538 6.63214 7.54925 7.75736 6.42404C8.88257 5.29882 10.4087 4.66668 12 4.66668C13.5913 4.66668 15.1174 5.29882 16.2426 6.42404C17.3679 7.54925 18 9.07538 18 10.6667C18 12.258 17.3679 13.7841 16.2426 14.9093C15.1174 16.0345 13.5913 16.6667 12 16.6667C10.4087 16.6667 8.88257 16.0345 7.75736 14.9093C6.63214 13.7841 6 12.258 6 10.6667ZM12 8.00001C12 9.47084 10.8042 10.6667 9.33333 10.6667C9.0375 10.6667 8.75416 10.6167 8.4875 10.5292C8.25833 10.4542 7.99166 10.5958 8 10.8375C8.0125 11.125 8.05416 11.4125 8.13333 11.7C8.70416 13.8333 10.9 15.1 13.0333 14.5292C15.1667 13.9583 16.4333 11.7625 15.8625 9.62918C15.4 7.90001 13.8708 6.73751 12.1708 6.66668C11.9292 6.65834 11.7875 6.92084 11.8625 7.15418C11.95 7.42084 12 7.70418 12 8.00001Z" fill="#3C3C3C"/>
</g>
<defs>
<clipPath id="clip0_58_2669">
<rect width="24" height="21.3333" fill="white"/>
</clipPath>
</defs>
</svg>
