<svg width="24" height="20" viewBox="0 0 24 20" fill="none" xmlns="http://www.w3.org/2000/svg">
<g clip-path="url(#clip0_58_2667)">
<path d="M1.45484 0.191095C1.06484 -0.116405 0.498595 -0.0451554 0.191095 0.344845C-0.116405 0.734845 -0.0451554 1.30109 0.344845 1.60859L22.5448 19.0086C22.9348 19.3161 23.5011 19.2448 23.8086 18.8548C24.1161 18.4648 24.0448 17.8986 23.6548 17.5911L19.7098 14.5011C21.1948 12.9786 22.1998 11.2723 22.7061 10.0611C22.8298 9.76484 22.8298 9.43484 22.7061 9.13859C22.1473 7.79984 20.9736 5.84984 19.2186 4.22234C17.4561 2.57984 15.0298 1.19984 11.9998 1.19984C9.44234 1.19984 7.31234 2.18609 5.65109 3.47984L1.45484 0.191095ZM8.36609 5.60609C9.32234 4.73234 10.6011 4.19984 11.9998 4.19984C14.9811 4.19984 17.3998 6.61859 17.3998 9.59984C17.3998 10.5336 17.1636 11.4111 16.7473 12.1761L15.2998 11.0436C15.6148 10.3198 15.6973 9.49109 15.4798 8.66984C15.0636 7.11359 13.6873 6.06734 12.1573 6.00359C11.9398 5.99609 11.8123 6.23234 11.8798 6.44234C11.9586 6.68234 12.0036 6.93734 12.0036 7.20359C12.0036 7.58609 11.9136 7.94609 11.7561 8.26484L8.36984 5.60984L8.36609 5.60609ZM13.9873 14.6211C13.3723 14.8648 12.7011 14.9998 11.9998 14.9998C9.01859 14.9998 6.59984 12.5811 6.59984 9.59984C6.59984 9.34109 6.61859 9.08984 6.65234 8.84234L3.11609 6.05609C2.26109 7.16984 1.64984 8.27984 1.29359 9.13859C1.16984 9.43484 1.16984 9.76484 1.29359 10.0611C1.85234 11.3998 3.02609 13.3498 4.78109 14.9773C6.54359 16.6198 8.96984 17.9998 11.9998 17.9998C13.7923 17.9998 15.3711 17.5161 16.7323 16.7811L13.9873 14.6211Z" fill="#3C3C3C"/>
</g>
<defs>
<clipPath id="clip0_58_2667">
<rect width="24" height="19.2" fill="white"/>
</clipPath>
</defs>
</svg>
