<svg width="40" height="40" viewBox="0 0 40 40" fill="none" xmlns="http://www.w3.org/2000/svg">
<path d="M5 11.3636C5 10.4432 5.74619 9.69698 6.66667 9.69698H33.3333C34.2538 9.69698 35 10.4432 35 11.3636V11.3636C35 12.2841 34.2538 13.0303 33.3333 13.0303H6.66667C5.74619 13.0303 5 12.2841 5 11.3636V11.3636ZM5 19.697C5 18.7765 5.74619 18.0303 6.66667 18.0303H33.3333C34.2538 18.0303 35 18.7765 35 19.697V19.697C35 20.6175 34.2538 21.3636 33.3333 21.3636H6.66667C5.74619 21.3636 5 20.6175 5 19.697V19.697ZM5 28.0303C5 27.1098 5.74619 26.3636 6.66667 26.3636H33.3333C34.2538 26.3636 35 27.1098 35 28.0303V28.0303C35 28.9508 34.2538 29.697 33.3333 29.697H6.66667C5.74619 29.697 5 28.9508 5 28.0303V28.0303Z" fill="white"/>
</svg>
