<svg width="25" height="23" viewBox="0 0 25 23" fill="none" xmlns="http://www.w3.org/2000/svg">
<g clip-path="url(#clip0_58_2592)">
<path d="M13.7544 0.78125C13.5243 0.303819 13.0382 0 12.5044 0C11.9705 0 11.4887 0.303819 11.2544 0.78125L8.46356 6.52344L2.23092 7.44358C1.71008 7.5217 1.27606 7.88628 1.11547 8.38542C0.954876 8.88455 1.08508 9.43576 1.45835 9.80469L5.98092 14.2795L4.91321 20.6033C4.8264 21.1241 5.04342 21.6536 5.47311 21.9618C5.90279 22.27 6.47137 22.309 6.94012 22.0616L12.5087 19.0885L18.0773 22.0616C18.546 22.309 19.1146 22.2743 19.5443 21.9618C19.974 21.6493 20.191 21.1241 20.1042 20.6033L19.0321 14.2795L23.5547 9.80469C23.928 9.43576 24.0625 8.88455 23.8976 8.38542C23.7327 7.88628 23.303 7.5217 22.7821 7.44358L16.5452 6.52344L13.7544 0.78125Z" fill="#FFC700"/>
</g>
<defs>
<clipPath id="clip0_58_2592">
<rect width="25" height="22.2222" fill="white"/>
</clipPath>
</defs>
</svg>
